# xmcd
# 
# Track frame offsets:
#     150
#     20369
#     37202
#     59597
#     79575
#     98378
#     114553
#     131782
#     149968
#     171520
#     192359
# 
# Disc length: 2869
# 
# Revision: 0
# Processed by: cddbd v1.5.2PL0 Copyright (c) Steve Scherf et al.
# Submitted via: fre:ac v1.0.17
# 
DISCID=a30b330b
DTITLE=The Warratahs - Runaway Days
DYEAR=2015
DGENRE=Country
TTITLE0=Mount Victoria Rain
TTITLE1=Up With The People
TTITLE2=The Wheel Inside
TTITLE3=Runaway Days
TTITLE4=Day In A Million
TTITLE5=Ring Of Fire
TTITLE6=Blue Town
TTITLE7=Faraway Sun
TTITLE8=Little Flame
TTITLE9=Here Comes Tomorrow
TTITLE10=Kupe's Tears
EXTD=
EXTT0=
EXTT1=
EXTT2=
EXTT3=
EXTT4=
EXTT5=
EXTT6=
EXTT7=
EXTT8=
EXTT9=
EXTT10=
PLAYORDER=
